<?xml version="1.0" encoding="UTF-8"?>
<svg id="logo" xmlns="http://www.w3.org/2000/svg" viewBox="0 0 981.13 498.41">
  <defs>
    <style>
      .cls-1 {
        fill: #e03127;
      }

      .cls-2 {
        fill: #58595b;
      }
    </style>
  </defs>
  <g>
    <path class="cls-2" d="M441.47,291.6v18.07h-6.78v-31.01h3.9l17.06,18.07v-18.07h6.78v31.01h-3.9l-17.06-18.07Z"/>
    <path class="cls-2" d="M469.62,308.43c-1.37-1.27-2.06-2.95-2.06-5.05,0-4.05,2.75-6.39,8.24-7.04,1.33-.15,2.33-.3,3.01-.47.68-.16,1.14-.35,1.4-.55.25-.21.38-.5.38-.89,0-.71-.36-1.29-1.09-1.75-.72-.46-1.79-.69-3.21-.69-2.45,0-4.95.87-7.49,2.61v-5.54c1.09-.71,2.34-1.29,3.74-1.75,1.4-.46,2.92-.69,4.54-.69,3.25,0,5.69.81,7.31,2.44,1.62,1.62,2.44,3.9,2.44,6.82v13.78h-5.32l-.18-2.83c-.65,1.12-1.51,1.99-2.59,2.59-1.08.6-2.34.91-3.79.91-2.19,0-3.96-.63-5.34-1.9ZM474.32,304.8c.52.5,1.2.75,2.06.75,1.21,0,2.22-.42,3.03-1.26.81-.84,1.22-2.18,1.22-4.01v-1.02c-.8.44-1.96.74-3.5.89-2.39.21-3.59,1.14-3.59,2.79,0,.74.26,1.36.78,1.86Z"/>
    <path class="cls-2" d="M491.88,287.3h6.07v3.99c.59-1.3,1.4-2.3,2.41-3.01,1.02-.71,2.18-1.06,3.48-1.06.62,0,1.21.06,1.77.18v6.2c-.74-.21-1.52-.31-2.35-.31-1.45,0-2.62.42-3.52,1.26-.9.84-1.35,2.03-1.35,3.57v11.56h-6.51v-22.37Z"/>
    <path class="cls-2" d="M509.63,308.43c-1.37-1.27-2.06-2.95-2.06-5.05,0-4.05,2.75-6.39,8.24-7.04,1.33-.15,2.33-.3,3.01-.47.68-.16,1.14-.35,1.4-.55.25-.21.38-.5.38-.89,0-.71-.36-1.29-1.09-1.75-.72-.46-1.79-.69-3.21-.69-2.45,0-4.95.87-7.49,2.61v-5.54c1.09-.71,2.34-1.29,3.74-1.75,1.4-.46,2.92-.69,4.54-.69,3.25,0,5.69.81,7.31,2.44,1.62,1.62,2.44,3.9,2.44,6.82v13.78h-5.32l-.18-2.83c-.65,1.12-1.51,1.99-2.59,2.59-1.08.6-2.34.91-3.79.91-2.19,0-3.96-.63-5.34-1.9ZM514.32,304.8c.52.5,1.2.75,2.06.75,1.21,0,2.22-.42,3.03-1.26.81-.84,1.22-2.18,1.22-4.01v-1.02c-.8.44-1.96.74-3.5.89-2.39.21-3.59,1.14-3.59,2.79,0,.74.26,1.36.78,1.86Z"/>
    <path class="cls-2" d="M529.14,287.3h7.49l4.92,13.07,5.01-13.07h7.49l-10.63,22.86h-3.63l-10.63-22.86Z"/>
    <path class="cls-2" d="M560.79,308.85c-1.85-.99-3.26-2.38-4.23-4.16s-1.46-3.83-1.46-6.14.49-4.4,1.46-6.2c.97-1.8,2.38-3.2,4.21-4.21,1.83-1,4.02-1.51,6.56-1.51s4.78.51,6.62,1.53c1.85,1.02,3.26,2.43,4.23,4.23.97,1.8,1.46,3.88,1.46,6.25s-.49,4.33-1.46,6.09c-.97,1.76-2.38,3.13-4.21,4.12-1.83.99-4.02,1.48-6.56,1.48s-4.78-.49-6.62-1.48ZM563.32,303.2c.99,1.12,2.35,1.68,4.1,1.68s3.06-.56,4.03-1.68c.97-1.12,1.46-2.64,1.46-4.56,0-2.04-.49-3.64-1.48-4.81-.99-1.17-2.36-1.75-4.1-1.75s-3.06.58-4.03,1.73-1.46,2.73-1.46,4.74.49,3.53,1.48,4.65Z"/>
    <path class="cls-2" d="M586.91,309.8c-1.39-.35-2.6-.87-3.63-1.55v-5.58c1.12.83,2.3,1.46,3.54,1.88,1.24.43,2.44.64,3.59.64,2.07,0,3.1-.58,3.1-1.73,0-.59-.2-1.05-.6-1.37-.4-.33-1.2-.68-2.41-1.06l-2.35-.75c-1.65-.56-2.91-1.34-3.77-2.35-.86-1-1.28-2.32-1.28-3.94,0-1.36.33-2.6,1-3.72.66-1.12,1.65-2.01,2.97-2.66,1.31-.65,2.9-.97,4.76-.97,2.45,0,4.64.58,6.56,1.73v5.76c-1.03-.71-2.06-1.26-3.08-1.64-1.02-.38-2.13-.58-3.34-.58-.8,0-1.46.17-1.97.51-.52.34-.77.79-.77,1.35s.16.99.49,1.28c.32.3.86.55,1.59.75l2.52.71c2.16.62,3.71,1.48,4.65,2.57.94,1.09,1.42,2.53,1.42,4.3,0,2.04-.78,3.71-2.35,5.01-1.57,1.3-3.75,1.95-6.56,1.95-1.33,0-2.69-.18-4.08-.53Z"/>
    <path class="cls-2" d="M604.09,277.77h6.51v31.9h-6.51v-31.9Z"/>
    <path class="cls-2" d="M620.77,308.85c-1.85-.99-3.26-2.38-4.23-4.16s-1.46-3.83-1.46-6.14.49-4.4,1.46-6.2c.97-1.8,2.38-3.2,4.21-4.21,1.83-1,4.02-1.51,6.56-1.51s4.78.51,6.62,1.53c1.85,1.02,3.26,2.43,4.23,4.23.97,1.8,1.46,3.88,1.46,6.25s-.49,4.33-1.46,6.09c-.97,1.76-2.38,3.13-4.21,4.12-1.83.99-4.02,1.48-6.56,1.48s-4.78-.49-6.62-1.48ZM623.3,303.2c.99,1.12,2.35,1.68,4.1,1.68s3.06-.56,4.03-1.68c.97-1.12,1.46-2.64,1.46-4.56,0-2.04-.49-3.64-1.48-4.81-.99-1.17-2.36-1.75-4.1-1.75s-3.06.58-4.03,1.73-1.46,2.73-1.46,4.74.49,3.53,1.48,4.65Z"/>
    <path class="cls-2" d="M640.69,287.3h7.49l4.92,13.07,5.01-13.07h7.49l-10.63,22.86h-3.63l-10.63-22.86Z"/>
    <path class="cls-2" d="M668.55,287.3h6.07v3.19c.71-1.24,1.64-2.19,2.79-2.86,1.15-.67,2.47-1,3.94-1,2.75,0,4.81.79,6.2,2.37,1.39,1.58,2.08,3.91,2.08,6.98v13.69h-6.51v-12.85c0-3.04-1.27-4.56-3.81-4.56-1.3,0-2.33.41-3.1,1.22-.77.81-1.15,1.9-1.15,3.26v12.94h-6.51v-22.37Z"/>
    <path class="cls-2" d="M699.36,308.85c-1.85-.99-3.26-2.38-4.23-4.16s-1.46-3.83-1.46-6.14.49-4.4,1.46-6.2c.97-1.8,2.38-3.2,4.21-4.21,1.83-1,4.02-1.51,6.56-1.51s4.78.51,6.62,1.53c1.85,1.02,3.26,2.43,4.23,4.23.97,1.8,1.46,3.88,1.46,6.25s-.49,4.33-1.46,6.09c-.97,1.76-2.38,3.13-4.21,4.12-1.83.99-4.02,1.48-6.56,1.48s-4.78-.49-6.62-1.48ZM701.89,303.2c.99,1.12,2.35,1.68,4.1,1.68s3.06-.56,4.03-1.68c.97-1.12,1.46-2.64,1.46-4.56,0-2.04-.49-3.64-1.48-4.81-.99-1.17-2.36-1.75-4.1-1.75s-3.06.58-4.03,1.73-1.46,2.73-1.46,4.74.49,3.53,1.48,4.65Z"/>
    <path class="cls-2" d="M723.26,302.4v-10.06h-2.7v-5.05h2.7v-4.74l6.51-1.51v6.25h5.8v5.05h-5.8v9.13c0,2.21.89,3.32,2.66,3.32.59,0,1.11-.05,1.57-.16.46-.1.98-.27,1.57-.51v5.54c-.86.24-1.62.41-2.28.51-.66.1-1.41.15-2.24.15-5.2,0-7.8-2.64-7.8-7.93Z"/>
    <path class="cls-2" d="M741.38,307.14c-2.16-2.13-3.23-4.99-3.23-8.59,0-2.33.47-4.4,1.4-6.2.93-1.8,2.24-3.2,3.92-4.21,1.68-1,3.62-1.51,5.8-1.51,3.57,0,6.22,1.05,7.93,3.15,1.71,2.1,2.57,4.96,2.57,8.59v1.95h-14.88c.24,1.59.85,2.75,1.84,3.48.99.72,2.41,1.09,4.27,1.09,2.72,0,5.21-.46,7.49-1.37v5.54c-1.24.44-2.44.77-3.61.97-1.17.21-2.53.31-4.1.31-4.1,0-7.24-1.06-9.39-3.19ZM753.3,295.89c-.21-1.36-.62-2.37-1.24-3.03-.62-.67-1.55-1-2.79-1-2.27,0-3.69,1.34-4.25,4.03h8.28Z"/>
    <path class="cls-2" d="M764.41,277.77h6.51v9.53l-.35,3.06c.71-1.18,1.64-2.1,2.79-2.75,1.15-.65,2.44-.97,3.85-.97,2.75,0,4.81.79,6.2,2.37,1.39,1.58,2.08,3.91,2.08,6.98v13.69h-6.51v-12.85c0-3.04-1.27-4.56-3.81-4.56-1.3,0-2.33.41-3.1,1.22-.77.81-1.15,1.9-1.15,3.26v12.94h-6.51v-31.9Z"/>
    <path class="cls-2" d="M790.55,287.3h6.07v3.19c.71-1.24,1.64-2.19,2.79-2.86,1.15-.67,2.47-1,3.94-1,2.75,0,4.81.79,6.2,2.37,1.39,1.58,2.08,3.91,2.08,6.98v13.69h-6.51v-12.85c0-3.04-1.27-4.56-3.81-4.56-1.3,0-2.33.41-3.1,1.22-.77.81-1.15,1.9-1.15,3.26v12.94h-6.51v-22.37Z"/>
    <path class="cls-2" d="M817.22,277.6c.77-.77,1.68-1.15,2.75-1.15s1.93.38,2.68,1.15c.75.77,1.13,1.67,1.13,2.7s-.38,1.93-1.15,2.7c-.77.77-1.65,1.15-2.66,1.15-1.06,0-1.98-.38-2.75-1.15-.77-.77-1.15-1.67-1.15-2.7s.38-1.93,1.15-2.7ZM816.69,287.3h6.51v22.37h-6.51v-22.37Z"/>
    <path class="cls-2" d="M826.43,276.09h5.94l3.72,4.16,3.81-4.16h5.94l-7.66,8.11h-4.21l-7.53-8.11ZM831.48,309.8c-1.39-.35-2.6-.87-3.63-1.55v-5.58c1.12.83,2.3,1.46,3.54,1.88,1.24.43,2.44.64,3.59.64,2.07,0,3.1-.58,3.1-1.73,0-.59-.2-1.05-.6-1.37-.4-.33-1.2-.68-2.41-1.06l-2.35-.75c-1.65-.56-2.91-1.34-3.77-2.35-.86-1-1.28-2.32-1.28-3.94,0-1.36.33-2.6,1-3.72.66-1.12,1.65-2.01,2.97-2.66,1.31-.65,2.9-.97,4.76-.97,2.45,0,4.64.58,6.56,1.73v5.76c-1.03-.71-2.06-1.26-3.08-1.64-1.02-.38-2.13-.58-3.34-.58-.8,0-1.46.17-1.97.51-.52.34-.77.79-.77,1.35s.16.99.49,1.28c.32.3.86.55,1.59.75l2.52.71c2.16.62,3.71,1.48,4.65,2.57.94,1.09,1.42,2.53,1.42,4.3,0,2.04-.78,3.71-2.35,5.01-1.57,1.3-3.75,1.95-6.56,1.95-1.33,0-2.69-.18-4.08-.53Z"/>
    <path class="cls-2" d="M855.18,299.04v10.63h-6.51v-31.9h6.51v17.59l7.49-8.06h8.24l-9.21,9.88,9.48,12.49h-8.02l-7.97-10.63Z"/>
    <path class="cls-2" d="M875.05,308.43c-1.37-1.27-2.06-2.95-2.06-5.05,0-4.05,2.75-6.39,8.24-7.04,1.33-.15,2.33-.3,3.01-.47.68-.16,1.14-.35,1.4-.55.25-.21.38-.5.38-.89,0-.71-.36-1.29-1.09-1.75-.72-.46-1.79-.69-3.21-.69-2.45,0-4.95.87-7.49,2.61v-5.54c1.09-.71,2.34-1.29,3.74-1.75,1.4-.46,2.92-.69,4.54-.69,3.25,0,5.69.81,7.31,2.44,1.62,1.62,2.44,3.9,2.44,6.82v13.78h-5.32l-.18-2.83c-.65,1.12-1.51,1.99-2.59,2.59-1.08.6-2.34.91-3.79.91-2.19,0-3.96-.63-5.34-1.9ZM879.75,304.8c.52.5,1.2.75,2.06.75,1.21,0,2.22-.42,3.03-1.26.81-.84,1.22-2.18,1.22-4.01v-1.02c-.8.44-1.96.74-3.5.89-2.39.21-3.59,1.14-3.59,2.79,0,.74.26,1.36.78,1.86Z"/>
  </g>
  <g>
    <path class="cls-2" d="M439.13,338.32c1.51-1.49,3.68-2.24,6.51-2.24,1.56,0,2.78.19,3.63.58v5.45c-.92-.35-1.79-.53-2.61-.53-1.03,0-1.84.27-2.41.82-.58.55-.86,1.32-.86,2.33v1.46h5.76v5.05h-5.76v17.32h-6.51v-17.32h-3.15v-5.05h3.15v-1.37c0-2.83.75-5,2.26-6.49Z"/>
    <path class="cls-2" d="M453.24,367.31c-1.37-1.27-2.06-2.95-2.06-5.05,0-4.05,2.75-6.39,8.24-7.04,1.33-.15,2.33-.3,3.01-.47.68-.16,1.14-.35,1.4-.55.25-.21.38-.5.38-.89,0-.71-.36-1.29-1.09-1.75-.72-.46-1.79-.69-3.21-.69-2.45,0-4.95.87-7.49,2.61v-5.54c1.09-.71,2.34-1.29,3.74-1.75,1.4-.46,2.92-.69,4.54-.69,3.25,0,5.69.81,7.31,2.44,1.62,1.62,2.44,3.9,2.44,6.82v13.78h-5.32l-.18-2.83c-.65,1.12-1.51,1.99-2.59,2.59-1.08.6-2.34.91-3.79.91-2.19,0-3.96-.63-5.34-1.9ZM457.94,363.68c.52.5,1.2.75,2.06.75,1.21,0,2.22-.42,3.03-1.26.81-.84,1.22-2.18,1.22-4.01v-1.02c-.8.44-1.96.74-3.5.89-2.39.21-3.59,1.14-3.59,2.79,0,.74.26,1.36.78,1.86Z"/>
    <path class="cls-2" d="M482.02,357.92v10.63h-6.51v-31.9h6.51v17.59l7.49-8.06h8.24l-9.21,9.88,9.48,12.49h-8.02l-7.97-10.63Z"/>
    <path class="cls-2" d="M502.59,366.85c-1.37-1.58-2.06-3.91-2.06-6.98v-13.69h6.51v12.85c0,3.04,1.2,4.56,3.59,4.56,1.3,0,2.3-.4,3.01-1.2.71-.8,1.06-1.89,1.06-3.28v-12.94h6.51v22.37h-6.07v-3.06c-.71,1.18-1.62,2.1-2.72,2.75-1.11.65-2.39.97-3.83.97-2.63,0-4.63-.79-6-2.37Z"/>
    <path class="cls-2" d="M526.71,336.66h6.51v31.9h-6.51v-31.9Z"/>
    <path class="cls-2" d="M539.29,361.29v-10.06h-2.7v-5.05h2.7v-4.74l6.51-1.51v6.25h5.8v5.05h-5.8v9.13c0,2.21.89,3.32,2.66,3.32.59,0,1.11-.05,1.57-.16.46-.1.98-.27,1.57-.51v5.54c-.86.24-1.62.41-2.28.51-.66.1-1.41.15-2.24.15-5.2,0-7.8-2.64-7.8-7.93Z"/>
    <path class="cls-2" d="M557.41,366.03c-2.16-2.13-3.23-4.99-3.23-8.59,0-2.33.47-4.4,1.4-6.2.93-1.8,2.24-3.2,3.92-4.21,1.68-1,3.62-1.51,5.8-1.51,3.57,0,6.22,1.05,7.93,3.15,1.71,2.1,2.57,4.96,2.57,8.59v1.95h-14.88c.24,1.59.85,2.75,1.84,3.48.99.72,2.41,1.09,4.27,1.09,2.72,0,5.21-.46,7.49-1.37v5.54c-1.24.44-2.44.77-3.61.97-1.17.21-2.53.31-4.1.31-4.1,0-7.24-1.06-9.39-3.19ZM569.33,354.78c-.21-1.36-.62-2.37-1.24-3.03-.62-.67-1.55-1-2.79-1-2.27,0-3.69,1.34-4.25,4.03h8.28Z"/>
    <path class="cls-2" d="M581.03,361.29v-10.06h-2.7v-5.05h2.7v-4.74l6.51-1.51v6.25h5.8v5.05h-5.8v9.13c0,2.21.89,3.32,2.66,3.32.59,0,1.11-.05,1.57-.16.46-.1.98-.27,1.57-.51v5.54c-.86.24-1.62.41-2.28.51-.66.1-1.41.15-2.24.15-5.2,0-7.8-2.64-7.8-7.93Z"/>
    <path class="cls-2" d="M598.72,367.31c-1.37-1.27-2.06-2.95-2.06-5.05,0-4.05,2.75-6.39,8.24-7.04,1.33-.15,2.33-.3,3.01-.47.68-.16,1.14-.35,1.4-.55.25-.21.38-.5.38-.89,0-.71-.36-1.29-1.09-1.75-.72-.46-1.79-.69-3.21-.69-2.45,0-4.95.87-7.49,2.61v-5.54c1.09-.71,2.34-1.29,3.74-1.75,1.4-.46,2.92-.69,4.54-.69,3.25,0,5.69.81,7.31,2.44,1.62,1.62,2.44,3.9,2.44,6.82v13.78h-5.32l-.18-2.83c-.65,1.12-1.51,1.99-2.59,2.59-1.08.6-2.34.91-3.79.91-2.19,0-3.96-.63-5.34-1.9ZM603.42,363.68c.52.5,1.2.75,2.06.75,1.21,0,2.22-.42,3.03-1.26.81-.84,1.22-2.18,1.22-4.01v-1.02c-.8.44-1.96.74-3.5.89-2.39.21-3.59,1.14-3.59,2.79,0,.74.26,1.36.78,1.86Z"/>
  </g>
  <g>
    <polygon class="cls-2" points="342.67 303.78 327.48 303.78 342.2 282.54 342.2 278.67 318.8 278.67 318.8 284.56 333.06 284.56 318.33 305.79 318.33 309.67 342.67 309.67 342.67 303.78"/>
    <path class="cls-2" d="M156.96,296.65v-17.98h-6.98v17.83c0,4.19-1.86,7.44-6.67,7.44-4.19,0-6.67-2.17-6.67-7.44v-17.83h-6.98v17.98c0,8.37,4.34,13.64,13.64,13.64,8.37,0,13.64-4.19,13.64-13.64Z"/>
    <polygon class="cls-2" points="277.87 303.78 263.61 303.78 263.61 296.49 276.32 296.49 276.32 290.6 263.61 290.6 263.61 284.56 277.72 284.56 277.72 278.67 256.63 278.67 256.63 309.67 277.87 309.67 277.87 303.78"/>
    <polygon class="cls-2" points="194.32 309.67 194.32 278.67 187.5 278.67 187.5 296.65 170.45 278.67 166.57 278.67 166.57 309.67 173.39 309.67 173.39 291.38 190.44 309.67 194.32 309.67"/>
    <path class="cls-2" d="M293.84,298.97h2.48l4.5,5.89c3.1,4.19,5.43,5.58,9.92,5.43v-6.2c-1.86,0-3.26-1.4-5.43-4.34l-1.24-1.71c3.57-1.55,6.51-4.65,6.51-9.3,0-6.2-4.96-10.08-12.87-10.08h-10.7v31h6.82v-10.7ZM293.84,284.56h3.72c3.88,0,5.74,1.55,5.74,4.34,0,2.95-1.86,4.5-5.74,4.5h-3.72v-8.84Z"/>
    <rect class="cls-2" x="204.24" y="278.67" width="6.98" height="31"/>
    <polygon class="cls-2" points="234 298.97 225.79 278.67 217.73 278.67 231.52 309.67 236.33 309.67 250.12 278.67 242.22 278.67 234 298.97"/>
    <path class="cls-2" d="M360.81,278.67h5.27l13.51,31h-7.97l-2.04-5.36h-12.4l-2.04,5.36h-7.97l13.64-31ZM367.45,298.64l-4.03-10.67-4.07,10.67h8.1Z"/>
    <g>
      <path class="cls-2" d="M158.08,343.44h8.37v22.63c0,3.57-.31,8.53-2.33,11.78h7.29c1.71-3.41,2.02-7.44,2.02-12.25v-28.06h-15.35v5.89Z"/>
      <polygon class="cls-2" points="145.06 337.55 138.08 337.55 138.08 368.55 158.08 368.55 158.08 362.66 145.06 362.66 145.06 337.55"/>
      <polygon class="cls-2" points="105.99 357.86 97.93 337.55 89.87 337.55 103.51 368.55 108.32 368.55 121.96 337.55 114.05 337.55 105.99 357.86"/>
      <polygon class="cls-2" points="258.84 337.55 251.86 337.55 251.86 368.55 271.86 368.55 271.86 362.66 258.84 362.66 258.84 337.55"/>
      <polygon class="cls-2" points="353.55 355.53 336.5 337.55 332.63 337.55 332.63 368.55 339.45 368.55 339.45 350.26 356.5 368.55 360.37 368.55 360.37 337.55 353.55 337.55 353.55 355.53"/>
      <rect class="cls-2" x="370.29" y="337.55" width="6.98" height="31"/>
      <path class="cls-2" d="M203.34,355.38c0,4.19-1.86,7.44-6.67,7.44-4.19,0-6.67-2.17-6.67-7.44v-17.83h-6.98v17.98c0,8.37,4.34,13.64,13.64,13.64,8.37,0,13.64-4.19,13.64-13.64v-17.98h-6.98v17.83Z"/>
      <path class="cls-2" d="M271.86,343.44h8.37v22.63c0,3.57-.31,8.53-2.33,11.78h7.29c1.71-3.41,2.02-7.44,2.02-12.25v-28.06h-15.35v5.89Z"/>
      <path class="cls-2" d="M237.91,351.88c2.18-1.09,3.72-3.11,3.72-6.43,0-5.27-3.88-7.91-10.7-7.91h-11.01v31h12.25c6.98,0,11.32-2.33,11.32-8.68,0-3.94-1.83-6.85-5.58-7.99ZM227.06,343.13h2.79c3.1,0,4.65,1.09,4.65,3.41,0,2.48-1.55,3.57-4.65,3.57h-2.79v-6.98ZM231.25,362.82h-4.19v-7.29h4.19c3.41,0,4.96,1.24,4.96,3.72,0,2.33-1.55,3.57-4.96,3.57Z"/>
      <path class="cls-2" d="M307.35,337.55h5.27l13.51,31h-7.97l-2.04-5.36h-12.4l-2.04,5.36h-7.97l13.64-31ZM313.99,357.52l-4.03-10.67-4.07,10.67h8.1Z"/>
    </g>
    <rect class="cls-2" x="404.04" y="89.9" width="2.77" height="318.61"/>
    <g>
      <rect class="cls-1" x="373.18" y="206.8" width="4.09" height="6.17"/>
      <rect class="cls-1" x="363.21" y="194.16" width="4.12" height="8.54"/>
      <rect class="cls-1" x="373.18" y="194.16" width="4.09" height="8.54"/>
      <rect class="cls-1" x="363.21" y="187.33" width="14.06" height="2.73"/>
      <rect class="cls-1" x="363.21" y="217.04" width="14.06" height="2.76"/>
      <rect class="cls-1" x="363.21" y="206.8" width="4.12" height="6.17"/>
      <rect class="cls-1" x="373.18" y="162.05" width="4.09" height="8.54"/>
      <rect class="cls-1" x="363.21" y="155.19" width="14.06" height="2.76"/>
      <path class="cls-1" d="M363.21,183.22h4.12v-6.5c0-1.14-.93-2.04-2.08-2.04s-2.05.9-2.05,2.04v6.5Z"/>
      <rect class="cls-1" x="356.32" y="129.91" width="20.95" height="2.73"/>
      <path class="cls-1" d="M375.22,174.69c-1.14,0-2.05.9-2.05,2.04v6.5h4.09v-6.5c0-1.14-.9-2.04-2.05-2.04Z"/>
      <rect class="cls-1" x="363.21" y="162.05" width="4.12" height="8.54"/>
      <path class="cls-1" d="M283.53,183.22h4.12v-6.5c0-1.14-.93-2.04-2.08-2.04s-2.05.9-2.05,2.04v6.5Z"/>
      <rect class="cls-1" x="273.56" y="162.05" width="4.12" height="8.54"/>
      <path class="cls-1" d="M337.44,116.04v1.38h0v.5h2.74v-1.88c0-2.16-1.44-3.98-3.43-4.58v-21.55h-2.74v24.1h1.36c1.14,0,2.08.93,2.08,2.04Z"/>
      <rect class="cls-1" x="303.43" y="162.05" width="4.12" height="8.54"/>
      <path class="cls-1" d="M273.56,183.22h4.12v-6.5c0-1.14-.93-2.04-2.08-2.04s-2.05.9-2.05,2.04v6.5Z"/>
      <rect class="cls-1" x="273.56" y="206.8" width="4.12" height="6.17"/>
      <path class="cls-1" d="M305.5,174.69c-1.14,0-2.08.9-2.08,2.04v6.5h4.12v-6.5c0-1.14-.9-2.04-2.05-2.04Z"/>
      <rect class="cls-1" x="293.49" y="162.05" width="4.09" height="8.54"/>
      <rect class="cls-1" x="283.53" y="162.05" width="4.12" height="8.54"/>
      <path class="cls-1" d="M293.49,183.22h4.09v-6.5c0-1.14-.9-2.04-2.05-2.04s-2.05.9-2.05,2.04v6.5Z"/>
      <polygon class="cls-1" points="269.44 162.05 266.7 162.05 266.7 219.8 307.55 219.8 307.55 217.04 269.44 217.04 269.44 190.05 307.55 190.05 307.55 187.33 269.44 187.33 269.44 162.05"/>
      <rect class="cls-1" x="273.56" y="194.16" width="4.12" height="8.54"/>
      <polygon class="cls-1" points="324.88 124.43 345.87 124.43 349.18 136.8 352.04 136.8 347.99 121.7 322.76 121.7 318.71 136.8 321.57 136.8 324.88 124.43"/>
      <rect class="cls-1" x="303.43" y="194.16" width="4.12" height="8.54"/>
      <path class="cls-1" d="M322.11,200.3v22.03h2.74v-22.03c0-3.38-2.77-6.14-6.17-6.14h-.14v2.73c.12,0,.02,0,.14,0,1.9,0,3.43,1.53,3.43,3.41Z"/>
      <rect class="cls-1" x="303.43" y="206.8" width="4.12" height="6.17"/>
      <rect class="cls-1" x="283.53" y="206.8" width="4.12" height="6.17"/>
      <rect class="cls-1" x="283.53" y="194.16" width="4.12" height="8.54"/>
      <rect class="cls-1" x="293.49" y="206.8" width="4.09" height="6.17"/>
      <rect class="cls-1" x="293.49" y="194.16" width="4.09" height="8.54"/>
      <path class="cls-1" d="M345.69,183.22h4.12v-6.5c0-1.14-.93-2.04-2.08-2.04s-2.05.9-2.05,2.04v6.5Z"/>
      <polygon class="cls-1" points="276.41 132.63 314.44 132.63 314.44 129.91 274.3 129.91 266.73 157.94 307.55 157.94 307.55 155.19 270.33 155.19 276.41 132.63"/>
      <polygon class="cls-1" points="356.32 221.33 359.09 219.8 359.09 142.22 356.32 142.22 356.32 221.33"/>
      <path class="cls-1" d="M345.92,200.3v22.03h2.74v-22.03c0-1.89,1.54-3.41,3.43-3.41.12,0,.02,0,.14,0v-2.73h-.14c-3.4,0-6.17,2.76-6.17,6.14Z"/>
      <path class="cls-1" d="M340.18,179.45c0-2.64-2.14-4.76-4.82-4.76s-4.79,2.13-4.79,4.76v7.88h-12.04v2.73h33.69v-2.73h-12.04v-7.88ZM337.44,187.33h-4.12v-7.88c0-1.11.93-2.04,2.05-2.04s2.08.93,2.08,2.04v7.88Z"/>
      <polygon class="cls-1" points="345 142.31 335.37 136.77 335.31 136.73 325.76 142.28 325.76 146.98 318.54 146.98 318.54 149.74 328.5 149.74 328.5 143.84 335.34 139.91 342.26 143.87 342.26 149.74 352.22 149.74 352.22 146.98 345 146.98 345 142.31"/>
      <path class="cls-1" d="M320.95,183.22h4.12v-6.5c0-1.14-.9-2.04-2.05-2.04s-2.08.9-2.08,2.04v6.5Z"/>
      <path class="cls-1" d="M341.57,222.33v-22.03c0-3.38-2.77-6.14-6.2-6.14s-6.17,2.76-6.17,6.14v22.03h2.74v-22.03c0-1.89,1.54-3.41,3.43-3.41s3.46,1.53,3.46,3.41v22.03h2.74Z"/>
      <polygon class="cls-1" points="311.67 219.8 314.44 221.33 314.44 142.22 311.67 142.22 311.67 219.8"/>
      <path class="cls-1" d="M338.13,147.37c0-1.54-1.23-2.79-2.77-2.79s-2.74,1.25-2.74,2.79,1.23,2.79,2.74,2.79,2.77-1.25,2.77-2.79Z"/>
      <rect class="cls-1" x="320.95" y="162.05" width="4.12" height="8.54"/>
      <path class="cls-1" d="M335.46,152.46c-2.98,0-5.69,1.02-7.83,2.73h-9.09v2.76h10.12c1.75-1.71,4.16-2.76,6.8-2.76s5.03,1.05,6.8,2.76h9.97v-2.76h-8.94c-2.14-1.71-4.88-2.73-7.83-2.73Z"/>
      <path class="cls-1" d="M340.18,170.58v-6.5c0-2.64-2.14-4.79-4.82-4.79s-4.79,2.16-4.79,4.79v6.5h2.74v-6.5c0-1.14.93-2.04,2.05-2.04s2.08.9,2.08,2.04v6.5h2.74Z"/>
      <rect class="cls-1" x="345.69" y="162.05" width="4.12" height="8.54"/>
      <polygon class="cls-1" points="322.15 226.42 318.54 224.37 318.54 227.53 321.41 229.15 349.35 229.15 352.22 227.53 352.22 224.37 348.61 226.42 322.15 226.42"/>
    </g>
  </g>
  <g>
    <path class="cls-2" d="M454.34,167.4v52.39h-19.65v-89.89h11.3l49.44,52.39v-52.39h19.65v89.89h-11.3l-49.44-52.39Z"/>
    <path class="cls-2" d="M557.07,147.37h-29.15v-17.46h78.46v17.46h-29.15v72.43h-20.16v-72.43Z"/>
    <path class="cls-2" d="M619.22,129.91h56.89v17.46h-36.73v21.7h35.57v16.95h-35.57v33.77h-20.16v-89.89Z"/>
  </g>
</svg>