<?xml version="1.0" encoding="UTF-8"?>
<svg id="logo" xmlns="http://www.w3.org/2000/svg" viewBox="0 0 632.78 344.44">
  <defs>
    <style>
      .cls-1 {
        fill: none;
      }

      .cls-2 {
        fill: #e03127;
      }

      .cls-3 {
        fill: #58595b;
      }
    </style>
  </defs>
  <rect class="cls-1" width="632.78" height="344.44"/>
  <g>
    <polygon class="cls-3" points="470.96 155.03 455.76 155.03 470.49 133.79 470.49 129.91 447.08 129.91 447.08 135.8 461.34 135.8 446.62 157.04 446.62 160.92 470.96 160.92 470.96 155.03"/>
    <path class="cls-3" d="M285.23,147.9v-17.98h-6.98v17.83c0,4.19-1.86,7.44-6.67,7.44-4.19,0-6.67-2.17-6.67-7.44v-17.83h-6.98v17.98c0,8.37,4.34,13.64,13.64,13.64,8.37,0,13.64-4.19,13.64-13.64Z"/>
    <polygon class="cls-3" points="406.15 155.03 391.89 155.03 391.89 147.74 404.6 147.74 404.6 141.85 391.89 141.85 391.89 135.8 406 135.8 406 129.91 384.92 129.91 384.92 160.92 406.15 160.92 406.15 155.03"/>
    <polygon class="cls-3" points="322.59 160.92 322.59 129.91 315.77 129.91 315.77 147.9 298.72 129.91 294.84 129.91 294.84 160.92 301.67 160.92 301.67 142.63 318.72 160.92 322.59 160.92"/>
    <path class="cls-3" d="M422.12,150.22h2.48l4.5,5.89c3.1,4.19,5.43,5.58,9.92,5.43v-6.2c-1.86,0-3.26-1.4-5.43-4.34l-1.24-1.71c3.57-1.55,6.51-4.65,6.51-9.3,0-6.2-4.96-10.08-12.87-10.08h-10.7v31.01h6.82v-10.7ZM422.12,135.8h3.72c3.88,0,5.74,1.55,5.74,4.34,0,2.95-1.86,4.5-5.74,4.5h-3.72v-8.84Z"/>
    <rect class="cls-3" x="332.52" y="129.91" width="6.98" height="31.01"/>
    <polygon class="cls-3" points="362.28 150.22 354.06 129.91 346 129.91 359.8 160.92 364.61 160.92 378.4 129.91 370.5 129.91 362.28 150.22"/>
    <path class="cls-3" d="M489.09,129.91h5.27l13.51,31.01h-7.97l-2.04-5.36h-12.4l-2.04,5.36h-7.97l13.64-31.01ZM495.74,149.89l-4.03-10.68-4.07,10.68h8.11Z"/>
    <g>
      <path class="cls-3" d="M323.68,194.69h8.37v22.63c0,3.57-.31,8.53-2.33,11.78h7.29c1.71-3.41,2.02-7.44,2.02-12.25v-28.06h-15.35v5.89Z"/>
      <polygon class="cls-3" points="310.66 188.8 303.68 188.8 303.68 219.81 323.68 219.81 323.68 213.91 310.66 213.91 310.66 188.8"/>
      <polygon class="cls-3" points="271.59 209.11 263.53 188.8 255.47 188.8 269.11 219.81 273.92 219.81 287.56 188.8 279.65 188.8 271.59 209.11"/>
      <polygon class="cls-3" points="424.45 188.8 417.47 188.8 417.47 219.81 437.47 219.81 437.47 213.91 424.45 213.91 424.45 188.8"/>
      <polygon class="cls-3" points="519.17 206.78 502.12 188.8 498.24 188.8 498.24 219.81 505.06 219.81 505.06 201.51 522.12 219.81 525.99 219.81 525.99 188.8 519.17 188.8 519.17 206.78"/>
      <rect class="cls-3" x="535.91" y="188.8" width="6.98" height="31.01"/>
      <path class="cls-3" d="M368.95,206.63c0,4.19-1.86,7.44-6.67,7.44-4.19,0-6.67-2.17-6.67-7.44v-17.83h-6.98v17.98c0,8.37,4.34,13.64,13.64,13.64,8.37,0,13.64-4.19,13.64-13.64v-17.98h-6.98v17.83Z"/>
      <path class="cls-3" d="M437.47,194.69h8.37v22.63c0,3.57-.31,8.53-2.33,11.78h7.29c1.71-3.41,2.02-7.44,2.02-12.25v-28.06h-15.35v5.89Z"/>
      <path class="cls-3" d="M403.52,203.13c2.18-1.09,3.72-3.11,3.72-6.43,0-5.27-3.88-7.91-10.7-7.91h-11.01v31.01h12.25c6.98,0,11.32-2.33,11.32-8.68,0-3.94-1.83-6.85-5.58-7.99ZM392.67,194.38h2.79c3.1,0,4.65,1.09,4.65,3.41,0,2.48-1.55,3.57-4.65,3.57h-2.79v-6.98ZM396.85,214.07h-4.19v-7.29h4.19c3.41,0,4.96,1.24,4.96,3.72,0,2.33-1.55,3.57-4.96,3.57Z"/>
      <path class="cls-3" d="M472.96,188.8h5.27l13.51,31.01h-7.97l-2.04-5.36h-12.4l-2.04,5.36h-7.97l13.64-31.01ZM479.6,208.78l-4.03-10.68-4.07,10.68h8.11Z"/>
    </g>
  </g>
  <g>
    <rect class="cls-2" x="196.4" y="206.8" width="4.09" height="6.17"/>
    <rect class="cls-2" x="186.44" y="194.16" width="4.12" height="8.54"/>
    <rect class="cls-2" x="196.4" y="194.16" width="4.09" height="8.54"/>
    <rect class="cls-2" x="186.44" y="187.33" width="14.06" height="2.73"/>
    <rect class="cls-2" x="186.44" y="217.05" width="14.06" height="2.76"/>
    <rect class="cls-2" x="186.44" y="206.8" width="4.12" height="6.17"/>
    <rect class="cls-2" x="196.4" y="162.05" width="4.09" height="8.54"/>
    <rect class="cls-2" x="186.44" y="155.19" width="14.06" height="2.76"/>
    <path class="cls-2" d="M186.44,183.23h4.12v-6.5c0-1.14-.93-2.04-2.08-2.04s-2.05.9-2.05,2.04v6.5Z"/>
    <rect class="cls-2" x="179.55" y="129.91" width="20.95" height="2.73"/>
    <path class="cls-2" d="M198.45,174.69c-1.14,0-2.05.9-2.05,2.04v6.5h4.09v-6.5c0-1.14-.9-2.04-2.05-2.04Z"/>
    <rect class="cls-2" x="186.44" y="162.05" width="4.12" height="8.54"/>
    <path class="cls-2" d="M106.75,183.23h4.12v-6.5c0-1.14-.93-2.04-2.08-2.04s-2.05.9-2.05,2.04v6.5Z"/>
    <rect class="cls-2" x="96.79" y="162.05" width="4.12" height="8.54"/>
    <path class="cls-2" d="M160.67,116.04v1.38h0v.5h2.74v-1.88c0-2.16-1.44-3.98-3.43-4.58v-21.55h-2.74v24.1h1.36c1.14,0,2.08.93,2.08,2.04Z"/>
    <rect class="cls-2" x="126.65" y="162.05" width="4.12" height="8.54"/>
    <path class="cls-2" d="M96.79,183.23h4.12v-6.5c0-1.14-.93-2.04-2.08-2.04s-2.05.9-2.05,2.04v6.5Z"/>
    <rect class="cls-2" x="96.79" y="206.8" width="4.12" height="6.17"/>
    <path class="cls-2" d="M128.73,174.69c-1.14,0-2.08.9-2.08,2.04v6.5h4.12v-6.5c0-1.14-.9-2.04-2.05-2.04Z"/>
    <rect class="cls-2" x="116.72" y="162.05" width="4.09" height="8.54"/>
    <rect class="cls-2" x="106.75" y="162.05" width="4.12" height="8.54"/>
    <path class="cls-2" d="M116.72,183.23h4.09v-6.5c0-1.14-.9-2.04-2.05-2.04s-2.05.9-2.05,2.04v6.5Z"/>
    <polygon class="cls-2" points="92.66 162.05 89.93 162.05 89.93 219.8 130.78 219.8 130.78 217.05 92.66 217.05 92.66 190.06 130.78 190.06 130.78 187.33 92.66 187.33 92.66 162.05"/>
    <rect class="cls-2" x="96.79" y="194.16" width="4.12" height="8.54"/>
    <polygon class="cls-2" points="148.11 124.43 169.1 124.43 172.41 136.8 175.27 136.8 171.22 121.71 145.98 121.71 141.93 136.8 144.79 136.8 148.11 124.43"/>
    <rect class="cls-2" x="126.65" y="194.16" width="4.12" height="8.54"/>
    <path class="cls-2" d="M145.33,200.31v22.03h2.74v-22.03c0-3.38-2.77-6.14-6.17-6.14h-.14v2.73c.12,0,.02,0,.14,0,1.9,0,3.43,1.53,3.43,3.41Z"/>
    <rect class="cls-2" x="126.65" y="206.8" width="4.12" height="6.17"/>
    <rect class="cls-2" x="106.75" y="206.8" width="4.12" height="6.17"/>
    <rect class="cls-2" x="106.75" y="194.16" width="4.12" height="8.54"/>
    <rect class="cls-2" x="116.72" y="206.8" width="4.09" height="6.17"/>
    <rect class="cls-2" x="116.72" y="194.16" width="4.09" height="8.54"/>
    <path class="cls-2" d="M168.92,183.23h4.12v-6.5c0-1.14-.93-2.04-2.08-2.04s-2.05.9-2.05,2.04v6.5Z"/>
    <polygon class="cls-2" points="99.64 132.64 137.67 132.64 137.67 129.91 97.53 129.91 89.96 157.95 130.78 157.95 130.78 155.19 93.55 155.19 99.64 132.64"/>
    <polygon class="cls-2" points="179.55 221.33 182.32 219.8 182.32 142.22 179.55 142.22 179.55 221.33"/>
    <path class="cls-2" d="M169.14,200.31v22.03h2.74v-22.03c0-1.89,1.54-3.41,3.43-3.41.12,0,.02,0,.14,0v-2.73h-.14c-3.4,0-6.17,2.76-6.17,6.14Z"/>
    <path class="cls-2" d="M163.41,179.46c0-2.64-2.14-4.76-4.82-4.76s-4.79,2.13-4.79,4.76v7.88h-12.04v2.73h33.69v-2.73h-12.04v-7.88ZM160.67,187.33h-4.12v-7.88c0-1.11.93-2.04,2.05-2.04s2.08.93,2.08,2.04v7.88Z"/>
    <polygon class="cls-2" points="168.23 142.31 158.59 136.77 158.54 136.74 148.99 142.28 148.99 146.99 141.76 146.99 141.76 149.74 151.73 149.74 151.73 143.84 158.56 139.92 165.49 143.87 165.49 149.74 175.45 149.74 175.45 146.99 168.23 146.99 168.23 142.31"/>
    <path class="cls-2" d="M144.17,183.23h4.12v-6.5c0-1.14-.9-2.04-2.05-2.04s-2.08.9-2.08,2.04v6.5Z"/>
    <path class="cls-2" d="M164.79,222.34v-22.03c0-3.38-2.77-6.14-6.2-6.14s-6.17,2.76-6.17,6.14v22.03h2.74v-22.03c0-1.89,1.54-3.41,3.43-3.41s3.46,1.53,3.46,3.41v22.03h2.74Z"/>
    <polygon class="cls-2" points="134.9 219.8 137.67 221.33 137.67 142.22 134.9 142.22 134.9 219.8"/>
    <path class="cls-2" d="M161.36,147.38c0-1.54-1.23-2.79-2.77-2.79s-2.74,1.25-2.74,2.79,1.23,2.79,2.74,2.79,2.77-1.25,2.77-2.79Z"/>
    <rect class="cls-2" x="144.17" y="162.05" width="4.12" height="8.54"/>
    <path class="cls-2" d="M158.68,152.47c-2.98,0-5.69,1.02-7.83,2.73h-9.09v2.76h10.12c1.75-1.71,4.16-2.76,6.8-2.76s5.03,1.05,6.8,2.76h9.97v-2.76h-8.94c-2.14-1.71-4.88-2.73-7.83-2.73Z"/>
    <path class="cls-2" d="M163.41,170.59v-6.5c0-2.64-2.14-4.79-4.82-4.79s-4.79,2.16-4.79,4.79v6.5h2.74v-6.5c0-1.14.93-2.04,2.05-2.04s2.08.9,2.08,2.04v6.5h2.74Z"/>
    <rect class="cls-2" x="168.92" y="162.05" width="4.12" height="8.54"/>
    <polygon class="cls-2" points="145.38 226.43 141.76 224.38 141.76 227.54 144.64 229.16 172.57 229.16 175.45 227.54 175.45 224.38 171.84 226.43 145.38 226.43"/>
  </g>
  <rect class="cls-3" x="227.27" y="89.9" width="2.77" height="169.9"/>
</svg>